<svg width="22" height="22" viewBox="0 0 22 22" fill="none" xmlns="http://www.w3.org/2000/svg">
<path fill-rule="evenodd" clip-rule="evenodd" d="M15.0979 2.00003C13.795 2.00001 12.9551 2.15523 11.9924 2.62648C11.6359 2.80095 11.3015 3.01107 10.991 3.2562C10.6924 3.02481 10.3713 2.82434 10.0296 2.65533C9.04819 2.16991 8.16525 2.00001 6.90909 2.00001C3.54479 2.00001 1.1 4.78755 1.1 8.4079C1.1 11.142 2.62445 13.7831 5.46395 16.3369C6.9544 17.6774 8.85739 19.004 10.2202 19.7097L11 20.1135L11.7798 19.7097C13.1426 19.004 15.0456 17.6774 16.536 16.3369C19.3755 13.7831 20.9 11.142 20.9 8.4079C20.9 4.82587 18.4322 2.01383 15.0979 2.00003ZM19.1 8.40794C19.1 10.55 17.8276 12.7544 15.3324 14.9986C13.972 16.2222 12.2231 17.4449 11 18.0864C9.77698 17.4449 8.02808 16.2222 6.66769 14.9986C4.17248 12.7544 2.90004 10.55 2.90004 8.40794C2.90004 5.733 4.59532 3.80005 6.90913 3.80005C7.9079 3.80005 8.52336 3.91848 9.23166 4.26881C9.65005 4.47574 10.0198 4.74898 10.3399 5.09044L11.0021 5.79688L11.6583 5.08484C11.9856 4.72971 12.3609 4.45024 12.7838 4.24323C13.4713 3.90669 14.0483 3.80005 15.0942 3.80006C17.3794 3.80953 19.1 5.77012 19.1 8.40794Z" fill="black"/>
</svg>
